<svg xmlns="http://www.w3.org/2000/svg" xmlns:xlink="http://www.w3.org/1999/xlink" width="1280" zoomAndPan="magnify" viewBox="0 0 960 479.999983" height="640" preserveAspectRatio="xMidYMid meet" version="1.0"><defs><clipPath id="e57cd3141e"><path d="M 222 165 L 413 165 L 413 336 L 222 336 Z M 222 165 " clip-rule="nonzero"/></clipPath><clipPath id="ef457cd886"><path d="M 412.121094 172.550781 L 322.53125 332.675781 C 320.679688 335.980469 315.929688 336 314.050781 332.710938 L 222.6875 172.566406 C 220.640625 168.984375 223.707031 164.640625 227.773438 165.367188 L 317.457031 181.390625 C 318.035156 181.492188 318.613281 181.492188 319.1875 181.386719 L 406.996094 165.390625 C 411.046875 164.652344 414.128906 168.960938 412.121094 172.550781 Z M 412.121094 172.550781 " clip-rule="nonzero"/></clipPath><linearGradient x1="-0.047328" gradientTransform="matrix(190.715343, 0, 0, 169.879374, 222.035559, 165.286464)" y1="0.0292602" x2="0.859585" gradientUnits="userSpaceOnUse" y2="1.126898" id="833d39b5dd"><stop stop-opacity="1" stop-color="rgb(25.498962%, 81.999207%, 100%)" offset="0"/><stop stop-opacity="1" stop-color="rgb(25.498962%, 81.999207%, 100%)" offset="0.03125"/><stop stop-opacity="1" stop-color="rgb(25.642395%, 81.816101%, 99.998474%)" offset="0.046875"/><stop stop-opacity="1" stop-color="rgb(26.081848%, 81.260681%, 99.993896%)" offset="0.0507813"/><stop stop-opacity="1" stop-color="rgb(26.376343%, 80.888367%, 99.992371%)" offset="0.0546875"/><stop stop-opacity="1" stop-color="rgb(26.670837%, 80.514526%, 99.989319%)" offset="0.0585938"/><stop stop-opacity="1" stop-color="rgb(26.965332%, 80.140686%, 99.987793%)" offset="0.0625"/><stop stop-opacity="1" stop-color="rgb(27.259827%, 79.766846%, 99.984741%)" offset="0.0664062"/><stop stop-opacity="1" stop-color="rgb(27.554321%, 79.394531%, 99.981689%)" offset="0.0703125"/><stop stop-opacity="1" stop-color="rgb(27.848816%, 79.020691%, 99.978638%)" offset="0.0742188"/><stop stop-opacity="1" stop-color="rgb(28.143311%, 78.648376%, 99.977112%)" offset="0.078125"/><stop stop-opacity="1" stop-color="rgb(28.437805%, 78.274536%, 99.97406%)" offset="0.0820312"/><stop stop-opacity="1" stop-color="rgb(28.7323%, 77.902222%, 99.972534%)" offset="0.0859375"/><stop stop-opacity="1" stop-color="rgb(29.026794%, 77.528381%, 99.969482%)" offset="0.0898438"/><stop stop-opacity="1" stop-color="rgb(29.321289%, 77.154541%, 99.967957%)" offset="0.09375"/><stop stop-opacity="1" stop-color="rgb(29.615784%, 76.780701%, 99.964905%)" offset="0.0976563"/><stop stop-opacity="1" stop-color="rgb(29.910278%, 76.408386%, 99.963379%)" offset="0.101563"/><stop stop-opacity="1" stop-color="rgb(30.204773%, 76.034546%, 99.960327%)" offset="0.105469"/><stop stop-opacity="1" stop-color="rgb(30.499268%, 75.662231%, 99.958801%)" offset="0.109375"/><stop stop-opacity="1" stop-color="rgb(30.793762%, 75.288391%, 99.95575%)" offset="0.113281"/><stop stop-opacity="1" stop-color="rgb(31.088257%, 74.916077%, 99.952698%)" offset="0.117188"/><stop stop-opacity="1" stop-color="rgb(31.382751%, 74.542236%, 99.949646%)" offset="0.121094"/><stop stop-opacity="1" stop-color="rgb(31.677246%, 74.168396%, 99.94812%)" offset="0.125"/><stop stop-opacity="1" stop-color="rgb(31.971741%, 73.794556%, 99.945068%)" offset="0.128906"/><stop stop-opacity="1" stop-color="rgb(32.266235%, 73.422241%, 99.943542%)" offset="0.132813"/><stop stop-opacity="1" stop-color="rgb(32.56073%, 73.048401%, 99.940491%)" offset="0.136719"/><stop stop-opacity="1" stop-color="rgb(32.855225%, 72.676086%, 99.938965%)" offset="0.140625"/><stop stop-opacity="1" stop-color="rgb(33.149719%, 72.302246%, 99.935913%)" offset="0.144531"/><stop stop-opacity="1" stop-color="rgb(33.444214%, 71.929932%, 99.934387%)" offset="0.148438"/><stop stop-opacity="1" stop-color="rgb(33.738708%, 71.556091%, 99.931335%)" offset="0.152344"/><stop stop-opacity="1" stop-color="rgb(34.033203%, 71.182251%, 99.928284%)" offset="0.15625"/><stop stop-opacity="1" stop-color="rgb(34.327698%, 70.808411%, 99.925232%)" offset="0.160156"/><stop stop-opacity="1" stop-color="rgb(34.622192%, 70.436096%, 99.923706%)" offset="0.164062"/><stop stop-opacity="1" stop-color="rgb(34.916687%, 70.062256%, 99.920654%)" offset="0.167969"/><stop stop-opacity="1" stop-color="rgb(35.211182%, 69.689941%, 99.919128%)" offset="0.171875"/><stop stop-opacity="1" stop-color="rgb(35.505676%, 69.316101%, 99.916077%)" offset="0.175781"/><stop stop-opacity="1" stop-color="rgb(35.800171%, 68.943787%, 99.914551%)" offset="0.179688"/><stop stop-opacity="1" stop-color="rgb(36.094666%, 68.569946%, 99.911499%)" offset="0.183594"/><stop stop-opacity="1" stop-color="rgb(36.38916%, 68.196106%, 99.909973%)" offset="0.1875"/><stop stop-opacity="1" stop-color="rgb(36.683655%, 67.822266%, 99.906921%)" offset="0.191406"/><stop stop-opacity="1" stop-color="rgb(36.978149%, 67.449951%, 99.905396%)" offset="0.195313"/><stop stop-opacity="1" stop-color="rgb(37.272644%, 67.076111%, 99.902344%)" offset="0.199219"/><stop stop-opacity="1" stop-color="rgb(37.567139%, 66.703796%, 99.899292%)" offset="0.203125"/><stop stop-opacity="1" stop-color="rgb(37.861633%, 66.329956%, 99.89624%)" offset="0.207031"/><stop stop-opacity="1" stop-color="rgb(38.156128%, 65.957642%, 99.894714%)" offset="0.210938"/><stop stop-opacity="1" stop-color="rgb(38.450623%, 65.583801%, 99.891663%)" offset="0.214844"/><stop stop-opacity="1" stop-color="rgb(38.745117%, 65.209961%, 99.890137%)" offset="0.21875"/><stop stop-opacity="1" stop-color="rgb(39.039612%, 64.836121%, 99.887085%)" offset="0.222656"/><stop stop-opacity="1" stop-color="rgb(39.334106%, 64.463806%, 99.885559%)" offset="0.226562"/><stop stop-opacity="1" stop-color="rgb(39.628601%, 64.089966%, 99.882507%)" offset="0.230469"/><stop stop-opacity="1" stop-color="rgb(39.923096%, 63.717651%, 99.880981%)" offset="0.234375"/><stop stop-opacity="1" stop-color="rgb(40.21759%, 63.343811%, 99.87793%)" offset="0.238281"/><stop stop-opacity="1" stop-color="rgb(40.512085%, 62.971497%, 99.876404%)" offset="0.242188"/><stop stop-opacity="1" stop-color="rgb(40.80658%, 62.597656%, 99.873352%)" offset="0.246094"/><stop stop-opacity="1" stop-color="rgb(41.101074%, 62.223816%, 99.8703%)" offset="0.25"/><stop stop-opacity="1" stop-color="rgb(41.395569%, 61.849976%, 99.867249%)" offset="0.253906"/><stop stop-opacity="1" stop-color="rgb(41.690063%, 61.477661%, 99.865723%)" offset="0.257813"/><stop stop-opacity="1" stop-color="rgb(41.984558%, 61.103821%, 99.862671%)" offset="0.261719"/><stop stop-opacity="1" stop-color="rgb(42.279053%, 60.731506%, 99.861145%)" offset="0.265625"/><stop stop-opacity="1" stop-color="rgb(42.573547%, 60.357666%, 99.858093%)" offset="0.269531"/><stop stop-opacity="1" stop-color="rgb(42.868042%, 59.985352%, 99.856567%)" offset="0.273438"/><stop stop-opacity="1" stop-color="rgb(43.162537%, 59.611511%, 99.853516%)" offset="0.277344"/><stop stop-opacity="1" stop-color="rgb(43.457031%, 59.237671%, 99.85199%)" offset="0.28125"/><stop stop-opacity="1" stop-color="rgb(43.751526%, 58.863831%, 99.848938%)" offset="0.285156"/><stop stop-opacity="1" stop-color="rgb(44.046021%, 58.491516%, 99.845886%)" offset="0.289062"/><stop stop-opacity="1" stop-color="rgb(44.340515%, 58.117676%, 99.842834%)" offset="0.292969"/><stop stop-opacity="1" stop-color="rgb(44.63501%, 57.745361%, 99.841309%)" offset="0.296875"/><stop stop-opacity="1" stop-color="rgb(44.929504%, 57.371521%, 99.838257%)" offset="0.300781"/><stop stop-opacity="1" stop-color="rgb(45.223999%, 56.999207%, 99.836731%)" offset="0.304688"/><stop stop-opacity="1" stop-color="rgb(45.518494%, 56.625366%, 99.833679%)" offset="0.308594"/><stop stop-opacity="1" stop-color="rgb(45.812988%, 56.251526%, 99.832153%)" offset="0.3125"/><stop stop-opacity="1" stop-color="rgb(46.107483%, 55.877686%, 99.829102%)" offset="0.316406"/><stop stop-opacity="1" stop-color="rgb(46.401978%, 55.505371%, 99.827576%)" offset="0.320313"/><stop stop-opacity="1" stop-color="rgb(46.696472%, 55.131531%, 99.824524%)" offset="0.324219"/><stop stop-opacity="1" stop-color="rgb(46.990967%, 54.759216%, 99.822998%)" offset="0.328125"/><stop stop-opacity="1" stop-color="rgb(47.285461%, 54.385376%, 99.819946%)" offset="0.332031"/><stop stop-opacity="1" stop-color="rgb(47.579956%, 54.013062%, 99.816895%)" offset="0.335938"/><stop stop-opacity="1" stop-color="rgb(47.874451%, 53.639221%, 99.813843%)" offset="0.339844"/><stop stop-opacity="1" stop-color="rgb(48.168945%, 53.265381%, 99.812317%)" offset="0.34375"/><stop stop-opacity="1" stop-color="rgb(48.46344%, 52.891541%, 99.809265%)" offset="0.347656"/><stop stop-opacity="1" stop-color="rgb(48.757935%, 52.519226%, 99.807739%)" offset="0.351562"/><stop stop-opacity="1" stop-color="rgb(49.052429%, 52.145386%, 99.804688%)" offset="0.355469"/><stop stop-opacity="1" stop-color="rgb(49.346924%, 51.773071%, 99.803162%)" offset="0.359375"/><stop stop-opacity="1" stop-color="rgb(49.641418%, 51.399231%, 99.80011%)" offset="0.363281"/><stop stop-opacity="1" stop-color="rgb(49.935913%, 51.026917%, 99.798584%)" offset="0.367188"/><stop stop-opacity="1" stop-color="rgb(50.230408%, 50.653076%, 99.795532%)" offset="0.371094"/><stop stop-opacity="1" stop-color="rgb(50.524902%, 50.279236%, 99.794006%)" offset="0.375"/><stop stop-opacity="1" stop-color="rgb(50.819397%, 49.905396%, 99.790955%)" offset="0.378906"/><stop stop-opacity="1" stop-color="rgb(51.113892%, 49.533081%, 99.787903%)" offset="0.382812"/><stop stop-opacity="1" stop-color="rgb(51.408386%, 49.159241%, 99.784851%)" offset="0.386719"/><stop stop-opacity="1" stop-color="rgb(51.702881%, 48.786926%, 99.783325%)" offset="0.390625"/><stop stop-opacity="1" stop-color="rgb(51.997375%, 48.413086%, 99.780273%)" offset="0.394531"/><stop stop-opacity="1" stop-color="rgb(52.29187%, 48.040771%, 99.778748%)" offset="0.398438"/><stop stop-opacity="1" stop-color="rgb(52.586365%, 47.666931%, 99.775696%)" offset="0.402344"/><stop stop-opacity="1" stop-color="rgb(52.880859%, 47.294617%, 99.77417%)" offset="0.40625"/><stop stop-opacity="1" stop-color="rgb(53.175354%, 46.920776%, 99.771118%)" offset="0.410156"/><stop stop-opacity="1" stop-color="rgb(53.469849%, 46.546936%, 99.769592%)" offset="0.414062"/><stop stop-opacity="1" stop-color="rgb(53.764343%, 46.173096%, 99.766541%)" offset="0.417969"/><stop stop-opacity="1" stop-color="rgb(54.058838%, 45.800781%, 99.763489%)" offset="0.421875"/><stop stop-opacity="1" stop-color="rgb(54.353333%, 45.426941%, 99.760437%)" offset="0.425781"/><stop stop-opacity="1" stop-color="rgb(54.647827%, 45.054626%, 99.758911%)" offset="0.429687"/><stop stop-opacity="1" stop-color="rgb(54.942322%, 44.680786%, 99.755859%)" offset="0.433594"/><stop stop-opacity="1" stop-color="rgb(55.236816%, 44.308472%, 99.754333%)" offset="0.4375"/><stop stop-opacity="1" stop-color="rgb(55.531311%, 43.934631%, 99.751282%)" offset="0.441406"/><stop stop-opacity="1" stop-color="rgb(55.825806%, 43.560791%, 99.749756%)" offset="0.445313"/><stop stop-opacity="1" stop-color="rgb(56.1203%, 43.186951%, 99.746704%)" offset="0.449219"/><stop stop-opacity="1" stop-color="rgb(56.414795%, 42.814636%, 99.745178%)" offset="0.453125"/><stop stop-opacity="1" stop-color="rgb(56.70929%, 42.440796%, 99.742126%)" offset="0.457031"/><stop stop-opacity="1" stop-color="rgb(57.003784%, 42.068481%, 99.740601%)" offset="0.460938"/><stop stop-opacity="1" stop-color="rgb(57.298279%, 41.694641%, 99.737549%)" offset="0.464844"/><stop stop-opacity="1" stop-color="rgb(57.592773%, 41.322327%, 99.734497%)" offset="0.46875"/><stop stop-opacity="1" stop-color="rgb(57.887268%, 40.948486%, 99.731445%)" offset="0.472656"/><stop stop-opacity="1" stop-color="rgb(58.181763%, 40.574646%, 99.729919%)" offset="0.476562"/><stop stop-opacity="1" stop-color="rgb(58.476257%, 40.200806%, 99.726868%)" offset="0.480469"/><stop stop-opacity="1" stop-color="rgb(58.770752%, 39.828491%, 99.725342%)" offset="0.484375"/><stop stop-opacity="1" stop-color="rgb(59.065247%, 39.454651%, 99.72229%)" offset="0.488281"/><stop stop-opacity="1" stop-color="rgb(59.359741%, 39.082336%, 99.720764%)" offset="0.492188"/><stop stop-opacity="1" stop-color="rgb(59.654236%, 38.708496%, 99.717712%)" offset="0.496094"/><stop stop-opacity="1" stop-color="rgb(59.94873%, 38.336182%, 99.716187%)" offset="0.5"/><stop stop-opacity="1" stop-color="rgb(60.243225%, 37.962341%, 99.713135%)" offset="0.503906"/><stop stop-opacity="1" stop-color="rgb(60.53772%, 37.588501%, 99.711609%)" offset="0.507812"/><stop stop-opacity="1" stop-color="rgb(60.832214%, 37.214661%, 99.708557%)" offset="0.511719"/><stop stop-opacity="1" stop-color="rgb(61.126709%, 36.842346%, 99.705505%)" offset="0.515625"/><stop stop-opacity="1" stop-color="rgb(61.421204%, 36.468506%, 99.702454%)" offset="0.519531"/><stop stop-opacity="1" stop-color="rgb(61.715698%, 36.096191%, 99.700928%)" offset="0.523438"/><stop stop-opacity="1" stop-color="rgb(62.010193%, 35.722351%, 99.697876%)" offset="0.527344"/><stop stop-opacity="1" stop-color="rgb(62.304688%, 35.350037%, 99.69635%)" offset="0.53125"/><stop stop-opacity="1" stop-color="rgb(62.599182%, 34.976196%, 99.693298%)" offset="0.535156"/><stop stop-opacity="1" stop-color="rgb(62.893677%, 34.602356%, 99.691772%)" offset="0.539062"/><stop stop-opacity="1" stop-color="rgb(63.188171%, 34.228516%, 99.688721%)" offset="0.542969"/><stop stop-opacity="1" stop-color="rgb(63.482666%, 33.856201%, 99.687195%)" offset="0.546875"/><stop stop-opacity="1" stop-color="rgb(63.777161%, 33.482361%, 99.684143%)" offset="0.550781"/><stop stop-opacity="1" stop-color="rgb(64.071655%, 33.110046%, 99.681091%)" offset="0.554688"/><stop stop-opacity="1" stop-color="rgb(64.36615%, 32.736206%, 99.67804%)" offset="0.558594"/><stop stop-opacity="1" stop-color="rgb(64.660645%, 32.363892%, 99.676514%)" offset="0.5625"/><stop stop-opacity="1" stop-color="rgb(64.955139%, 31.990051%, 99.673462%)" offset="0.566406"/><stop stop-opacity="1" stop-color="rgb(65.249634%, 31.616211%, 99.671936%)" offset="0.570312"/><stop stop-opacity="1" stop-color="rgb(65.544128%, 31.242371%, 99.668884%)" offset="0.574219"/><stop stop-opacity="1" stop-color="rgb(65.838623%, 30.870056%, 99.667358%)" offset="0.578125"/><stop stop-opacity="1" stop-color="rgb(66.133118%, 30.496216%, 99.664307%)" offset="0.582031"/><stop stop-opacity="1" stop-color="rgb(66.427612%, 30.123901%, 99.662781%)" offset="0.585938"/><stop stop-opacity="1" stop-color="rgb(66.722107%, 29.750061%, 99.659729%)" offset="0.589844"/><stop stop-opacity="1" stop-color="rgb(67.016602%, 29.377747%, 99.658203%)" offset="0.59375"/><stop stop-opacity="1" stop-color="rgb(67.311096%, 29.003906%, 99.655151%)" offset="0.597656"/><stop stop-opacity="1" stop-color="rgb(67.605591%, 28.630066%, 99.6521%)" offset="0.601562"/><stop stop-opacity="1" stop-color="rgb(67.900085%, 28.256226%, 99.649048%)" offset="0.605469"/><stop stop-opacity="1" stop-color="rgb(68.19458%, 27.883911%, 99.647522%)" offset="0.609375"/><stop stop-opacity="1" stop-color="rgb(68.489075%, 27.510071%, 99.64447%)" offset="0.613281"/><stop stop-opacity="1" stop-color="rgb(68.783569%, 27.137756%, 99.642944%)" offset="0.617188"/><stop stop-opacity="1" stop-color="rgb(69.078064%, 26.763916%, 99.639893%)" offset="0.621094"/><stop stop-opacity="1" stop-color="rgb(69.372559%, 26.391602%, 99.638367%)" offset="0.625"/><stop stop-opacity="1" stop-color="rgb(69.667053%, 26.017761%, 99.635315%)" offset="0.628906"/><stop stop-opacity="1" stop-color="rgb(69.961548%, 25.643921%, 99.633789%)" offset="0.632812"/><stop stop-opacity="1" stop-color="rgb(70.256042%, 25.270081%, 99.630737%)" offset="0.636719"/><stop stop-opacity="1" stop-color="rgb(70.550537%, 24.897766%, 99.629211%)" offset="0.640625"/><stop stop-opacity="1" stop-color="rgb(70.845032%, 24.523926%, 99.62616%)" offset="0.644531"/><stop stop-opacity="1" stop-color="rgb(71.139526%, 24.151611%, 99.623108%)" offset="0.648438"/><stop stop-opacity="1" stop-color="rgb(71.434021%, 23.777771%, 99.620056%)" offset="0.652344"/><stop stop-opacity="1" stop-color="rgb(71.728516%, 23.405457%, 99.61853%)" offset="0.65625"/><stop stop-opacity="1" stop-color="rgb(72.02301%, 23.031616%, 99.615479%)" offset="0.660156"/><stop stop-opacity="1" stop-color="rgb(72.317505%, 22.657776%, 99.613953%)" offset="0.664062"/><stop stop-opacity="1" stop-color="rgb(72.612%, 22.283936%, 99.610901%)" offset="0.667969"/><stop stop-opacity="1" stop-color="rgb(72.906494%, 21.911621%, 99.609375%)" offset="0.671875"/><stop stop-opacity="1" stop-color="rgb(73.200989%, 21.537781%, 99.606323%)" offset="0.675781"/><stop stop-opacity="1" stop-color="rgb(73.495483%, 21.165466%, 99.604797%)" offset="0.679688"/><stop stop-opacity="1" stop-color="rgb(73.789978%, 20.791626%, 99.601746%)" offset="0.683594"/><stop stop-opacity="1" stop-color="rgb(74.084473%, 20.419312%, 99.598694%)" offset="0.6875"/><stop stop-opacity="1" stop-color="rgb(74.092102%, 20.40863%, 99.598694%)" offset="0.75"/><stop stop-opacity="1" stop-color="rgb(74.099731%, 20.399475%, 99.598694%)" offset="1"/></linearGradient><clipPath id="ebe2144f56"><path d="M 287 144 L 376 144 L 376 304 L 287 304 Z M 287 144 " clip-rule="nonzero"/></clipPath><clipPath id="a923a966c4"><path d="M 360.179688 144.351562 L 293.882812 157.335938 C 293.617188 157.386719 293.367188 157.480469 293.132812 157.613281 C 292.898438 157.75 292.695312 157.917969 292.515625 158.121094 C 292.339844 158.324219 292.199219 158.550781 292.097656 158.800781 C 291.996094 159.050781 291.933594 159.308594 291.917969 159.578125 L 287.839844 228.421875 C 287.828125 228.613281 287.839844 228.800781 287.875 228.988281 C 287.90625 229.171875 287.960938 229.351562 288.035156 229.527344 C 288.109375 229.699219 288.203125 229.863281 288.3125 230.015625 C 288.425781 230.167969 288.554688 230.304688 288.699219 230.425781 C 288.84375 230.546875 289 230.652344 289.167969 230.738281 C 289.339844 230.824219 289.515625 230.886719 289.699219 230.933594 C 289.882812 230.976562 290.070312 231 290.257812 231 C 290.449219 231.003906 290.632812 230.980469 290.820312 230.9375 L 309.277344 226.679688 C 311.003906 226.28125 312.566406 227.804688 312.210938 229.539062 L 306.726562 256.378906 C 306.355469 258.1875 308.054688 259.730469 309.816406 259.195312 L 321.21875 255.734375 C 322.988281 255.199219 324.683594 256.746094 324.3125 258.554688 L 315.597656 300.714844 C 315.050781 303.351562 318.558594 304.789062 320.023438 302.53125 L 321 301.019531 L 375.023438 193.257812 C 375.929688 191.453125 374.371094 189.398438 372.386719 189.78125 L 353.386719 193.445312 C 351.601562 193.789062 350.082031 192.125 350.585938 190.382812 L 362.988281 147.414062 C 363.492188 145.664062 361.96875 144 360.179688 144.351562 Z M 360.179688 144.351562 " clip-rule="nonzero"/></clipPath><linearGradient x1="0.429071" gradientTransform="matrix(87.451657, 0, 0, 159.348764, 287.836857, 144.302945)" y1="-0.0362182" x2="0.515648" gradientUnits="userSpaceOnUse" y2="1.046465" id="93dfad6b03"><stop stop-opacity="1" stop-color="rgb(100%, 91.799927%, 51.399231%)" offset="0"/><stop stop-opacity="1" stop-color="rgb(100%, 91.799927%, 51.399231%)" offset="0.03125"/><stop stop-opacity="1" stop-color="rgb(100%, 91.799927%, 51.399231%)" offset="0.046875"/><stop stop-opacity="1" stop-color="rgb(100%, 91.778564%, 51.277161%)" offset="0.0546875"/><stop stop-opacity="1" stop-color="rgb(100%, 91.459656%, 49.359131%)" offset="0.0585937"/><stop stop-opacity="1" stop-color="rgb(100%, 91.160583%, 47.563171%)" offset="0.0625"/><stop stop-opacity="1" stop-color="rgb(100%, 90.859985%, 45.765686%)" offset="0.0664062"/><stop stop-opacity="1" stop-color="rgb(100%, 90.560913%, 43.969727%)" offset="0.0703125"/><stop stop-opacity="1" stop-color="rgb(100%, 90.261841%, 42.173767%)" offset="0.0742187"/><stop stop-opacity="1" stop-color="rgb(100%, 89.962769%, 40.377808%)" offset="0.078125"/><stop stop-opacity="1" stop-color="rgb(100%, 89.66217%, 38.580322%)" offset="0.0820312"/><stop stop-opacity="1" stop-color="rgb(100%, 89.363098%, 36.784363%)" offset="0.0859375"/><stop stop-opacity="1" stop-color="rgb(100%, 89.064026%, 34.986877%)" offset="0.0898437"/><stop stop-opacity="1" stop-color="rgb(100%, 88.764954%, 33.190918%)" offset="0.09375"/><stop stop-opacity="1" stop-color="rgb(100%, 88.464355%, 31.393433%)" offset="0.0976562"/><stop stop-opacity="1" stop-color="rgb(100%, 88.165283%, 29.597473%)" offset="0.101562"/><stop stop-opacity="1" stop-color="rgb(100%, 87.866211%, 27.799988%)" offset="0.105469"/><stop stop-opacity="1" stop-color="rgb(100%, 87.567139%, 26.004028%)" offset="0.109375"/><stop stop-opacity="1" stop-color="rgb(100%, 87.266541%, 24.208069%)" offset="0.113281"/><stop stop-opacity="1" stop-color="rgb(100%, 86.967468%, 22.412109%)" offset="0.117187"/><stop stop-opacity="1" stop-color="rgb(100%, 86.772156%, 21.543884%)" offset="0.121094"/><stop stop-opacity="1" stop-color="rgb(100%, 86.576843%, 20.677185%)" offset="0.125"/><stop stop-opacity="1" stop-color="rgb(100%, 86.465454%, 20.565796%)" offset="0.132812"/><stop stop-opacity="1" stop-color="rgb(100%, 86.245728%, 20.344543%)" offset="0.140625"/><stop stop-opacity="1" stop-color="rgb(100%, 86.024475%, 20.123291%)" offset="0.148437"/><stop stop-opacity="1" stop-color="rgb(100%, 85.803223%, 19.903564%)" offset="0.15625"/><stop stop-opacity="1" stop-color="rgb(100%, 85.58197%, 19.682312%)" offset="0.164062"/><stop stop-opacity="1" stop-color="rgb(100%, 85.360718%, 19.46106%)" offset="0.171875"/><stop stop-opacity="1" stop-color="rgb(100%, 85.139465%, 19.239807%)" offset="0.179687"/><stop stop-opacity="1" stop-color="rgb(100%, 84.918213%, 19.018555%)" offset="0.1875"/><stop stop-opacity="1" stop-color="rgb(100%, 84.69696%, 18.797302%)" offset="0.195312"/><stop stop-opacity="1" stop-color="rgb(100%, 84.477234%, 18.57605%)" offset="0.203125"/><stop stop-opacity="1" stop-color="rgb(100%, 84.255981%, 18.354797%)" offset="0.210938"/><stop stop-opacity="1" stop-color="rgb(100%, 84.034729%, 18.135071%)" offset="0.21875"/><stop stop-opacity="1" stop-color="rgb(100%, 83.813477%, 17.913818%)" offset="0.226562"/><stop stop-opacity="1" stop-color="rgb(100%, 83.592224%, 17.692566%)" offset="0.234375"/><stop stop-opacity="1" stop-color="rgb(100%, 83.370972%, 17.471313%)" offset="0.242187"/><stop stop-opacity="1" stop-color="rgb(100%, 83.149719%, 17.250061%)" offset="0.25"/><stop stop-opacity="1" stop-color="rgb(100%, 82.928467%, 17.028809%)" offset="0.257812"/><stop stop-opacity="1" stop-color="rgb(100%, 82.70874%, 16.807556%)" offset="0.265625"/><stop stop-opacity="1" stop-color="rgb(100%, 82.487488%, 16.586304%)" offset="0.273438"/><stop stop-opacity="1" stop-color="rgb(100%, 82.266235%, 16.366577%)" offset="0.28125"/><stop stop-opacity="1" stop-color="rgb(100%, 82.044983%, 16.145325%)" offset="0.289062"/><stop stop-opacity="1" stop-color="rgb(100%, 81.82373%, 15.924072%)" offset="0.296875"/><stop stop-opacity="1" stop-color="rgb(100%, 81.602478%, 15.70282%)" offset="0.304688"/><stop stop-opacity="1" stop-color="rgb(100%, 81.381226%, 15.481567%)" offset="0.3125"/><stop stop-opacity="1" stop-color="rgb(100%, 81.159973%, 15.260315%)" offset="0.320312"/><stop stop-opacity="1" stop-color="rgb(100%, 80.938721%, 15.039062%)" offset="0.328125"/><stop stop-opacity="1" stop-color="rgb(100%, 80.718994%, 14.81781%)" offset="0.335937"/><stop stop-opacity="1" stop-color="rgb(100%, 80.497742%, 14.598083%)" offset="0.34375"/><stop stop-opacity="1" stop-color="rgb(100%, 80.276489%, 14.376831%)" offset="0.351562"/><stop stop-opacity="1" stop-color="rgb(100%, 80.055237%, 14.155579%)" offset="0.359375"/><stop stop-opacity="1" stop-color="rgb(100%, 79.833984%, 13.934326%)" offset="0.367188"/><stop stop-opacity="1" stop-color="rgb(100%, 79.612732%, 13.713074%)" offset="0.375"/><stop stop-opacity="1" stop-color="rgb(100%, 79.391479%, 13.491821%)" offset="0.382812"/><stop stop-opacity="1" stop-color="rgb(100%, 79.170227%, 13.270569%)" offset="0.390625"/><stop stop-opacity="1" stop-color="rgb(100%, 78.9505%, 13.049316%)" offset="0.398438"/><stop stop-opacity="1" stop-color="rgb(100%, 78.729248%, 12.828064%)" offset="0.40625"/><stop stop-opacity="1" stop-color="rgb(100%, 78.507996%, 12.608337%)" offset="0.414062"/><stop stop-opacity="1" stop-color="rgb(100%, 78.286743%, 12.387085%)" offset="0.421875"/><stop stop-opacity="1" stop-color="rgb(100%, 78.065491%, 12.165833%)" offset="0.429687"/><stop stop-opacity="1" stop-color="rgb(100%, 77.844238%, 11.94458%)" offset="0.4375"/><stop stop-opacity="1" stop-color="rgb(100%, 77.622986%, 11.723328%)" offset="0.445312"/><stop stop-opacity="1" stop-color="rgb(100%, 77.401733%, 11.502075%)" offset="0.453125"/><stop stop-opacity="1" stop-color="rgb(100%, 77.182007%, 11.280823%)" offset="0.460937"/><stop stop-opacity="1" stop-color="rgb(100%, 76.960754%, 11.05957%)" offset="0.46875"/><stop stop-opacity="1" stop-color="rgb(100%, 76.739502%, 10.839844%)" offset="0.476562"/><stop stop-opacity="1" stop-color="rgb(100%, 76.51825%, 10.618591%)" offset="0.484375"/><stop stop-opacity="1" stop-color="rgb(100%, 76.296997%, 10.397339%)" offset="0.492187"/><stop stop-opacity="1" stop-color="rgb(100%, 76.075745%, 10.176086%)" offset="0.5"/><stop stop-opacity="1" stop-color="rgb(100%, 75.854492%, 9.954834%)" offset="0.507812"/><stop stop-opacity="1" stop-color="rgb(100%, 75.63324%, 9.733582%)" offset="0.515625"/><stop stop-opacity="1" stop-color="rgb(100%, 75.413513%, 9.512329%)" offset="0.523437"/><stop stop-opacity="1" stop-color="rgb(100%, 75.192261%, 9.291077%)" offset="0.53125"/><stop stop-opacity="1" stop-color="rgb(100%, 74.971008%, 9.07135%)" offset="0.539062"/><stop stop-opacity="1" stop-color="rgb(100%, 74.749756%, 8.850098%)" offset="0.546875"/><stop stop-opacity="1" stop-color="rgb(100%, 74.528503%, 8.628845%)" offset="0.554688"/><stop stop-opacity="1" stop-color="rgb(100%, 74.307251%, 8.407593%)" offset="0.5625"/><stop stop-opacity="1" stop-color="rgb(100%, 74.085999%, 8.18634%)" offset="0.570312"/><stop stop-opacity="1" stop-color="rgb(100%, 73.864746%, 7.965088%)" offset="0.578125"/><stop stop-opacity="1" stop-color="rgb(100%, 73.643494%, 7.743835%)" offset="0.585938"/><stop stop-opacity="1" stop-color="rgb(100%, 73.423767%, 7.522583%)" offset="0.59375"/><stop stop-opacity="1" stop-color="rgb(100%, 73.202515%, 7.301331%)" offset="0.601562"/><stop stop-opacity="1" stop-color="rgb(100%, 72.981262%, 7.081604%)" offset="0.609375"/><stop stop-opacity="1" stop-color="rgb(100%, 72.76001%, 6.860352%)" offset="0.617187"/><stop stop-opacity="1" stop-color="rgb(100%, 72.538757%, 6.639099%)" offset="0.625"/><stop stop-opacity="1" stop-color="rgb(100%, 72.317505%, 6.417847%)" offset="0.632812"/><stop stop-opacity="1" stop-color="rgb(100%, 72.096252%, 6.196594%)" offset="0.640625"/><stop stop-opacity="1" stop-color="rgb(100%, 71.875%, 5.975342%)" offset="0.648437"/><stop stop-opacity="1" stop-color="rgb(100%, 71.655273%, 5.754089%)" offset="0.65625"/><stop stop-opacity="1" stop-color="rgb(100%, 71.434021%, 5.532837%)" offset="0.664062"/><stop stop-opacity="1" stop-color="rgb(100%, 71.212769%, 5.31311%)" offset="0.671875"/><stop stop-opacity="1" stop-color="rgb(100%, 70.991516%, 5.091858%)" offset="0.679687"/><stop stop-opacity="1" stop-color="rgb(100%, 70.770264%, 4.870605%)" offset="0.6875"/><stop stop-opacity="1" stop-color="rgb(100%, 70.549011%, 4.649353%)" offset="0.695312"/><stop stop-opacity="1" stop-color="rgb(100%, 70.327759%, 4.428101%)" offset="0.703125"/><stop stop-opacity="1" stop-color="rgb(100%, 70.106506%, 4.206848%)" offset="0.710937"/><stop stop-opacity="1" stop-color="rgb(100%, 69.88678%, 3.985596%)" offset="0.71875"/><stop stop-opacity="1" stop-color="rgb(100%, 69.665527%, 3.764343%)" offset="0.726562"/><stop stop-opacity="1" stop-color="rgb(100%, 69.444275%, 3.544617%)" offset="0.734375"/><stop stop-opacity="1" stop-color="rgb(100%, 69.223022%, 3.323364%)" offset="0.742188"/><stop stop-opacity="1" stop-color="rgb(100%, 69.00177%, 3.102112%)" offset="0.75"/><stop stop-opacity="1" stop-color="rgb(100%, 68.780518%, 2.880859%)" offset="0.757812"/><stop stop-opacity="1" stop-color="rgb(100%, 68.559265%, 2.659607%)" offset="0.765625"/><stop stop-opacity="1" stop-color="rgb(100%, 68.338013%, 2.438354%)" offset="0.773437"/><stop stop-opacity="1" stop-color="rgb(100%, 68.11676%, 2.217102%)" offset="0.78125"/><stop stop-opacity="1" stop-color="rgb(100%, 67.897034%, 1.99585%)" offset="0.789062"/><stop stop-opacity="1" stop-color="rgb(100%, 67.675781%, 1.776123%)" offset="0.796875"/><stop stop-opacity="1" stop-color="rgb(100%, 67.454529%, 1.554871%)" offset="0.804688"/><stop stop-opacity="1" stop-color="rgb(100%, 67.233276%, 1.333618%)" offset="0.8125"/><stop stop-opacity="1" stop-color="rgb(100%, 67.012024%, 1.112366%)" offset="0.820313"/><stop stop-opacity="1" stop-color="rgb(100%, 66.790771%, 0.891113%)" offset="0.828125"/><stop stop-opacity="1" stop-color="rgb(100%, 66.569519%, 0.669861%)" offset="0.835938"/><stop stop-opacity="1" stop-color="rgb(100%, 66.348267%, 0.448608%)" offset="0.84375"/><stop stop-opacity="1" stop-color="rgb(100%, 66.069031%, 0.169373%)" offset="0.875"/><stop stop-opacity="1" stop-color="rgb(100%, 65.899658%, 0%)" offset="0.926067"/><stop stop-opacity="1" stop-color="rgb(100%, 65.899658%, 0%)" offset="1"/></linearGradient><clipPath id="cfa791bfa9"><path d="M 436.554688 144 L 651.804688 144 L 651.804688 336 L 436.554688 336 Z M 436.554688 144 " clip-rule="nonzero"/></clipPath><clipPath id="1dd35d5105"><path d="M 674.574219 154.632812 L 960 154.632812 L 960 325.632812 L 674.574219 325.632812 Z M 674.574219 154.632812 " clip-rule="nonzero"/></clipPath></defs><path fill="#ffffff" d="M 98.4375 144 C 79.460938 144 60.914062 149.628906 45.132812 160.179688 C 29.355469 170.726562 17.058594 185.71875 9.796875 203.261719 C 2.535156 220.804688 0.636719 240.105469 4.339844 258.726562 C 8.039062 277.351562 17.179688 294.457031 30.597656 307.882812 C 44.011719 321.308594 61.109375 330.449219 79.71875 334.15625 C 98.332031 337.859375 117.621094 335.957031 135.152344 328.691406 C 152.683594 321.425781 167.667969 309.121094 178.210938 293.335938 C 188.753906 277.546875 194.378906 258.988281 194.378906 240 L 146.410156 240 C 146.410156 249.492188 143.597656 258.773438 138.324219 266.667969 C 133.054688 274.5625 125.5625 280.714844 116.796875 284.347656 C 108.03125 287.980469 98.386719 288.929688 89.078125 287.078125 C 79.773438 285.226562 71.226562 280.652344 64.515625 273.941406 C 57.808594 267.226562 53.238281 258.675781 51.386719 249.363281 C 49.535156 240.054688 50.488281 230.402344 54.117188 221.632812 C 57.75 212.859375 63.898438 205.363281 71.785156 200.089844 C 79.675781 194.816406 88.949219 192 98.4375 192 Z M 98.4375 144 " fill-opacity="1" fill-rule="nonzero"/><path fill="#5ce1e6" d="M 98.4375 144 C 85.839844 144 73.363281 146.484375 61.722656 151.308594 C 50.082031 156.132812 39.503906 163.203125 30.597656 172.117188 C 21.6875 181.03125 14.621094 191.613281 9.796875 203.261719 C 4.976562 214.910156 2.496094 227.394531 2.496094 240 L 50.464844 240 C 50.464844 233.695312 51.707031 227.453125 54.117188 221.632812 C 56.527344 215.808594 60.0625 210.515625 64.515625 206.058594 C 68.972656 201.601562 74.261719 198.066406 80.078125 195.652344 C 85.898438 193.242188 92.136719 192 98.4375 192 Z M 98.4375 144 " fill-opacity="1" fill-rule="nonzero"/><path fill="#5ce1e6" d="M 128.417969 240 C 128.417969 240.984375 128.371094 241.960938 128.273438 242.941406 C 128.179688 243.917969 128.035156 244.890625 127.84375 245.851562 C 127.652344 246.816406 127.414062 247.769531 127.128906 248.707031 C 126.84375 249.648438 126.511719 250.574219 126.136719 251.480469 C 125.761719 252.386719 125.339844 253.273438 124.878906 254.140625 C 124.414062 255.007812 123.910156 255.851562 123.367188 256.667969 C 122.820312 257.484375 122.234375 258.273438 121.613281 259.03125 C 120.988281 259.792969 120.332031 260.519531 119.636719 261.214844 C 118.941406 261.90625 118.214844 262.566406 117.457031 263.191406 C 116.699219 263.8125 115.910156 264.398438 115.09375 264.945312 C 114.277344 265.488281 113.4375 265.996094 112.570312 266.457031 C 111.703125 266.921875 110.816406 267.339844 109.910156 267.714844 C 109.003906 268.09375 108.078125 268.421875 107.140625 268.707031 C 106.199219 268.992188 105.25 269.230469 104.285156 269.421875 C 103.324219 269.613281 102.351562 269.757812 101.375 269.855469 C 100.398438 269.953125 99.417969 270 98.4375 270 C 97.453125 270 96.476562 269.953125 95.496094 269.855469 C 94.519531 269.757812 93.550781 269.613281 92.585938 269.421875 C 91.625 269.230469 90.671875 268.992188 89.734375 268.707031 C 88.792969 268.421875 87.871094 268.09375 86.960938 267.714844 C 86.054688 267.339844 85.167969 266.921875 84.304688 266.457031 C 83.4375 265.996094 82.59375 265.488281 81.777344 264.945312 C 80.960938 264.398438 80.175781 263.8125 79.414062 263.191406 C 78.65625 262.566406 77.929688 261.90625 77.234375 261.214844 C 76.542969 260.519531 75.882812 259.792969 75.257812 259.03125 C 74.636719 258.273438 74.050781 257.484375 73.507812 256.667969 C 72.960938 255.851562 72.457031 255.007812 71.996094 254.140625 C 71.53125 253.273438 71.113281 252.386719 70.738281 251.480469 C 70.359375 250.574219 70.03125 249.648438 69.746094 248.707031 C 69.460938 247.769531 69.222656 246.816406 69.03125 245.851562 C 68.839844 244.890625 68.695312 243.917969 68.597656 242.941406 C 68.503906 241.960938 68.453125 240.984375 68.453125 240 C 68.453125 239.015625 68.503906 238.039062 68.597656 237.058594 C 68.695312 236.082031 68.839844 235.109375 69.03125 234.148438 C 69.222656 233.183594 69.460938 232.230469 69.746094 231.292969 C 70.03125 230.351562 70.359375 229.425781 70.738281 228.519531 C 71.113281 227.613281 71.53125 226.722656 71.996094 225.859375 C 72.457031 224.992188 72.960938 224.148438 73.507812 223.332031 C 74.050781 222.515625 74.636719 221.726562 75.257812 220.96875 C 75.882812 220.207031 76.542969 219.480469 77.234375 218.785156 C 77.929688 218.09375 78.65625 217.433594 79.414062 216.808594 C 80.175781 216.1875 80.960938 215.601562 81.777344 215.054688 C 82.59375 214.511719 83.4375 214.003906 84.304688 213.542969 C 85.167969 213.078125 86.054688 212.660156 86.960938 212.285156 C 87.871094 211.90625 88.792969 211.578125 89.734375 211.292969 C 90.671875 211.007812 91.625 210.769531 92.585938 210.578125 C 93.550781 210.382812 94.519531 210.242188 95.496094 210.144531 C 96.476562 210.046875 97.453125 210 98.4375 210 C 99.417969 210 100.398438 210.046875 101.375 210.144531 C 102.351562 210.242188 103.324219 210.382812 104.285156 210.578125 C 105.25 210.769531 106.199219 211.007812 107.140625 211.292969 C 108.078125 211.578125 109.003906 211.90625 109.910156 212.285156 C 110.816406 212.660156 111.703125 213.078125 112.570312 213.542969 C 113.4375 214.003906 114.277344 214.511719 115.09375 215.054688 C 115.910156 215.601562 116.699219 216.1875 117.457031 216.808594 C 118.214844 217.433594 118.941406 218.09375 119.636719 218.785156 C 120.332031 219.480469 120.988281 220.207031 121.613281 220.96875 C 122.234375 221.726562 122.820312 222.515625 123.367188 223.332031 C 123.910156 224.148438 124.414062 224.992188 124.878906 225.859375 C 125.339844 226.722656 125.761719 227.613281 126.136719 228.519531 C 126.511719 229.425781 126.84375 230.351562 127.128906 231.292969 C 127.414062 232.230469 127.652344 233.183594 127.84375 234.148438 C 128.035156 235.109375 128.179688 236.082031 128.273438 237.058594 C 128.371094 238.039062 128.417969 239.015625 128.417969 240 Z M 128.417969 240 " fill-opacity="1" fill-rule="nonzero"/><path fill="#ffffff" d="M 128.417969 240 C 128.417969 236.058594 127.644531 232.160156 126.136719 228.519531 C 124.632812 224.878906 122.421875 221.574219 119.636719 218.785156 C 116.855469 216 113.550781 213.792969 109.910156 212.285156 C 106.273438 210.777344 102.375 210 98.4375 210 C 94.5 210 90.601562 210.777344 86.964844 212.285156 C 83.328125 213.792969 80.019531 216 77.238281 218.785156 C 74.453125 221.574219 72.246094 224.878906 70.738281 228.519531 C 69.230469 232.160156 68.457031 236.058594 68.457031 240 Z M 128.417969 240 " fill-opacity="1" fill-rule="nonzero"/><g clip-path="url(#e57cd3141e)"><g clip-path="url(#ef457cd886)"><path fill="url(#833d39b5dd)" d="M 220.640625 164.640625 L 220.640625 336 L 414.128906 336 L 414.128906 164.640625 Z M 220.640625 164.640625 " fill-rule="nonzero"/></g></g><g clip-path="url(#ebe2144f56)"><g clip-path="url(#a923a966c4)"><path fill="url(#93dfad6b03)" d="M 287.828125 144 L 287.828125 304.789062 L 375.929688 304.789062 L 375.929688 144 Z M 287.828125 144 " fill-rule="nonzero"/></g></g><g clip-path="url(#cfa791bfa9)"><path fill="#00d8ff" d="M 651.804688 240.027344 C 651.804688 225.75 633.953125 212.226562 606.574219 203.828125 C 612.898438 175.890625 610.078125 153.667969 597.710938 146.546875 C 594.855469 144.882812 591.527344 144.09375 587.882812 144.09375 L 587.882812 153.898438 C 589.898438 153.898438 591.527344 154.300781 592.894531 155.035156 C 598.867188 158.457031 601.441406 171.503906 599.425781 188.289062 C 598.9375 192.410156 598.148438 196.761719 597.183594 201.195312 C 588.585938 199.09375 579.195312 197.460938 569.332031 196.410156 C 563.410156 188.289062 557.261719 180.90625 551.078125 174.453125 C 565.375 161.121094 578.792969 153.84375 587.917969 153.84375 L 587.917969 144.039062 C 575.847656 144.039062 560.066406 152.652344 544.089844 167.59375 C 528.113281 152.738281 512.332031 144.214844 500.261719 144.214844 L 500.261719 154.019531 C 509.335938 154.019531 522.808594 161.261719 537.117188 174.488281 C 530.96875 180.941406 524.839844 188.269531 519.007812 196.410156 C 509.089844 197.460938 499.703125 199.09375 491.101562 201.230469 C 490.085938 196.847656 489.351562 192.585938 488.824219 188.5 C 486.757812 171.714844 489.316406 158.667969 495.234375 155.195312 C 496.550781 154.40625 498.265625 154.054688 500.28125 154.054688 L 500.28125 144.269531 C 496.601562 144.269531 493.257812 145.058594 490.367188 146.722656 C 478.035156 153.84375 475.265625 176.03125 481.640625 203.878906 C 454.316406 212.296875 436.554688 225.785156 436.554688 240.027344 C 436.554688 254.300781 454.402344 267.824219 481.78125 276.226562 C 475.457031 304.164062 478.277344 326.382812 490.644531 333.503906 C 493.5 335.171875 496.828125 335.960938 500.527344 335.960938 C 512.59375 335.960938 528.378906 327.347656 544.351562 312.40625 C 560.328125 327.261719 576.113281 335.785156 588.179688 335.785156 C 591.859375 335.785156 595.207031 334.996094 598.097656 333.328125 C 610.429688 326.207031 613.195312 304.023438 606.820312 276.171875 C 634.039062 267.789062 651.804688 254.25 651.804688 240.027344 Z M 564.183594 240.027344 C 564.183594 228.941406 555.214844 219.945312 544.125 219.945312 C 533.054688 219.945312 524.070312 228.925781 524.070312 240.027344 C 524.070312 251.128906 533.039062 260.105469 544.125 260.105469 C 555.214844 260.089844 564.183594 251.109375 564.183594 240.027344 Z M 500.210938 144.214844 Z M 594.679688 210.71875 C 593.050781 216.386719 591.035156 222.226562 588.757812 228.066406 C 586.953125 224.558594 585.082031 221.03125 583.015625 217.523438 C 581 214.015625 578.84375 210.578125 576.691406 207.246094 C 582.925781 208.175781 588.933594 209.316406 594.679688 210.71875 Z M 574.589844 257.511719 C 571.171875 263.441406 567.652344 269.070312 564.007812 274.296875 C 557.472656 274.875 550.851562 275.171875 544.179688 275.171875 C 537.558594 275.171875 530.933594 274.855469 524.4375 274.332031 C 520.792969 269.105469 517.238281 263.527344 513.820312 257.632812 C 510.492188 251.882812 507.460938 246.042969 504.695312 240.148438 C 507.410156 234.257812 510.492188 228.382812 513.769531 222.628906 C 517.183594 216.699219 520.707031 211.070312 524.347656 205.84375 C 530.882812 205.265625 537.503906 204.96875 544.179688 204.96875 C 550.800781 204.96875 557.421875 205.285156 563.921875 205.808594 C 567.5625 211.035156 571.121094 216.613281 574.535156 222.503906 C 577.863281 228.257812 580.894531 234.097656 583.660156 239.992188 C 580.894531 245.867188 577.882812 251.742188 574.589844 257.511719 Z M 588.757812 251.792969 C 591.125 257.6875 593.136719 263.5625 594.820312 269.28125 C 589.074219 270.683594 583.015625 271.875 576.742188 272.789062 C 578.898438 269.402344 581.035156 265.929688 583.066406 262.371094 C 585.0625 258.863281 586.953125 255.300781 588.757812 251.792969 Z M 544.265625 298.65625 C 540.183594 294.445312 536.101562 289.746094 532.074219 284.609375 C 536.015625 284.785156 540.0625 284.921875 544.144531 284.921875 C 548.261719 284.921875 552.339844 284.835938 556.335938 284.609375 C 552.375 289.746094 548.292969 294.445312 544.265625 298.65625 Z M 511.632812 272.789062 C 505.394531 271.859375 499.386719 270.71875 493.640625 269.316406 C 495.269531 263.648438 497.285156 257.808594 499.5625 251.96875 C 501.367188 255.476562 503.242188 259.003906 505.308594 262.511719 C 507.375 266.035156 509.476562 269.457031 511.632812 272.789062 Z M 544.039062 181.378906 C 548.121094 185.589844 552.199219 190.289062 556.230469 195.425781 C 552.289062 195.25 548.242188 195.109375 544.160156 195.109375 C 540.042969 195.109375 535.960938 195.199219 531.96875 195.425781 C 535.929688 190.289062 540.007812 185.589844 544.039062 181.378906 Z M 511.578125 207.246094 C 509.425781 210.632812 507.289062 214.105469 505.253906 217.664062 C 503.242188 221.171875 501.347656 224.699219 499.542969 228.207031 C 497.179688 222.3125 495.164062 216.4375 493.484375 210.71875 C 499.246094 209.351562 505.308594 208.175781 511.578125 207.246094 Z M 471.867188 262.246094 C 456.332031 255.617188 446.292969 246.917969 446.292969 240.027344 C 446.292969 233.132812 456.347656 224.382812 471.867188 217.804688 C 475.632812 216.175781 479.769531 214.738281 484.023438 213.367188 C 486.53125 221.980469 489.824219 230.941406 493.902344 240.113281 C 489.875 249.25 486.617188 258.160156 484.164062 266.738281 C 479.820312 265.367188 475.6875 263.878906 471.867188 262.246094 Z M 495.480469 325.015625 C 489.507812 321.597656 486.933594 308.546875 488.945312 291.761719 C 489.4375 287.640625 490.226562 283.292969 491.1875 278.855469 C 499.789062 280.960938 509.179688 282.589844 519.042969 283.644531 C 524.960938 291.761719 531.109375 299.148438 537.292969 305.601562 C 522.984375 318.914062 509.566406 326.207031 500.4375 326.207031 C 498.457031 326.15625 496.792969 325.769531 495.480469 325.015625 Z M 599.550781 291.554688 C 601.617188 308.335938 599.058594 321.386719 593.136719 324.859375 C 591.824219 325.648438 590.109375 325.996094 588.09375 325.996094 C 579.019531 325.996094 565.550781 318.753906 551.238281 305.53125 C 557.386719 299.078125 563.515625 291.746094 569.351562 283.609375 C 579.265625 282.554688 588.652344 280.925781 597.253906 278.769531 C 598.269531 283.203125 599.058594 287.464844 599.550781 291.554688 Z M 616.4375 262.246094 C 612.671875 263.878906 608.535156 265.316406 604.28125 266.683594 C 601.773438 258.074219 598.480469 249.109375 594.398438 239.9375 C 598.429688 230.800781 601.6875 221.890625 604.140625 213.316406 C 608.484375 214.683594 612.601562 216.175781 616.472656 217.789062 C 632.007812 224.417969 642.046875 233.117188 642.046875 240.007812 C 642.011719 246.917969 631.972656 255.652344 616.4375 262.246094 Z M 616.4375 262.246094 " fill-opacity="1" fill-rule="evenodd"/></g><g clip-path="url(#1dd35d5105)"><path fill="#06b6d4" d="M 817.449219 154.878906 C 779.359375 154.878906 755.546875 173.824219 746.011719 211.714844 C 760.304688 192.777344 776.972656 185.675781 796.007812 190.40625 C 806.890625 193.101562 814.613281 200.941406 823.261719 209.621094 C 837.214844 223.765625 853.496094 240.121094 888.886719 240.121094 C 926.976562 240.121094 950.789062 221.175781 960.324219 183.285156 C 946.046875 202.238281 929.382812 209.339844 910.328125 204.59375 C 899.445312 201.898438 891.722656 194.058594 883.074219 185.378906 C 869.074219 171.164062 852.867188 154.878906 817.449219 154.878906 Z M 746.011719 240.121094 C 707.921875 240.121094 684.109375 259.066406 674.574219 296.957031 C 688.882812 278.019531 705.550781 270.914062 724.570312 275.644531 C 735.453125 278.34375 743.175781 286.183594 751.824219 294.882812 C 765.777344 309.007812 782.058594 325.382812 817.449219 325.382812 C 855.539062 325.382812 879.351562 306.4375 888.886719 268.550781 C 874.609375 287.488281 857.945312 294.574219 838.890625 289.8125 C 828.007812 287.113281 820.285156 279.273438 811.636719 270.597656 C 797.683594 256.453125 781.40625 240.074219 746.011719 240.074219 Z M 746.011719 240.121094 " fill-opacity="1" fill-rule="evenodd"/></g></svg>